<?xml version="1.0" encoding="utf-8"?>
<!-- Generator: Adobe Illustrator 19.0.0, SVG Export Plug-In . SVG Version: 6.00 Build 0)  -->
<svg version="1.1" id="Layer_2" xmlns="http://www.w3.org/2000/svg" xmlns:xlink="http://www.w3.org/1999/xlink" x="0px" y="0px"
	 viewBox="0 0 1205.9 820.2" style="enable-background:new 0 0 1205.9 820.2;" xml:space="preserve">
<style type="text/css">
	.st0{fill:#983434;}
</style>
<g>
	<g>
		<path d="M932.3,558.4L771.2,227.7c-3.7-7.6-11.4-12.4-19.8-12.4H734h-17.3c-8.4,0-16.1,4.8-19.8,12.4l-32.7,67.1l48,98.5
			l21.8-44.9l114.6,235.4c6.2,12.8,19.2,21,33.5,21h21.1C927.1,604.9,942.7,579.9,932.3,558.4z"/>
		<path d="M588.7,449.8L566.9,405l-48,98.6l21.8,44.8l17.3,35.5c0.1,0.1,0.1,0.2,0.2,0.4c12.5,25,48.6,25,61.1,0
			c0.1-0.1,0.1-0.2,0.2-0.4l17.3-35.5l21.9-45l-48-98.6L588.7,449.8z"/>
		<path d="M480.5,227.7c-3.7-7.6-11.4-12.4-19.8-12.4h-17.3H426c-8.4,0-16.1,4.8-19.8,12.4L245.1,558.4c-10.4,21.4,5.2,46.4,29,46.4
			h21.1c14.3,0,27.3-8.1,33.5-21l114.6-235.4l21.9,45l48-98.5L480.5,227.7z"/>
	</g>
	<path class="st0" d="M787.1,558.4L626,227.7c-3.7-7.6-11.4-12.4-19.8-12.4h-17.3h-17.3c-8.4,0-16.1,4.8-19.8,12.4L390.5,558.4
		c-10.4,21.4,5.2,46.4,29,46.4h21.1c14.3,0,27.3-8.1,33.5-21l114.6-235.4l114.6,235.4c6.2,12.8,19.2,21,33.5,21H758
		C781.9,604.9,797.5,579.9,787.1,558.4z"/>
</g>
</svg>
